<svg width="25" height="32" viewBox="0 0 25 32" fill="none" xmlns="http://www.w3.org/2000/svg">
<circle cx="12.5" cy="7.5" r="5.75" stroke="white" stroke-width="3.5"/>
<path d="M23.25 25.5C23.25 27.0109 22.9413 27.7924 22.6202 28.2185C22.3164 28.6216 21.8308 28.9332 20.9525 29.132C20.0405 29.3385 18.8739 29.3851 17.3933 29.3617C16.8621 29.3532 16.2672 29.3347 15.6384 29.3151C14.6378 29.2839 13.5516 29.25 12.5 29.25C11.4484 29.25 10.3622 29.2839 9.36165 29.3151C8.73283 29.3347 8.13787 29.3532 7.60669 29.3617C6.12609 29.3851 4.95951 29.3385 4.04753 29.132C3.16923 28.9332 2.68365 28.6216 2.37982 28.2185C2.05869 27.7924 1.75 27.0109 1.75 25.5C1.75 19.5629 6.56294 14.75 12.5 14.75C18.4371 14.75 23.25 19.5629 23.25 25.5Z" stroke="white" stroke-width="3.5"/>
</svg>
