<svg width="30" height="30" viewBox="0 0 30 30" fill="none" xmlns="http://www.w3.org/2000/svg">
<mask id="path-1-inside-1_195_29" fill="white">
<rect x="1.7597" y="4.99512" width="26.3951" height="20" rx="2"/>
</mask>
<rect x="1.7597" y="4.99512" width="26.3951" height="20" rx="2" stroke="white" stroke-width="6" mask="url(#path-1-inside-1_195_29)"/>
<path d="M14.7803 17.1851L6.23936 7.19763C6.1909 7.14097 6.18008 7.09938 6.17669 7.06997C6.17236 7.03235 6.1781 6.98244 6.2024 6.92998C6.2267 6.87753 6.26104 6.84089 6.29253 6.81989C6.31713 6.80348 6.35584 6.78488 6.43035 6.78529L23.5975 6.88056C23.672 6.88098 23.7106 6.90001 23.7351 6.91669C23.7664 6.93804 23.8004 6.97505 23.8242 7.02778C23.8481 7.0805 23.8534 7.13047 23.8487 7.16805C23.8451 7.19742 23.8339 7.23888 23.785 7.29501L15.1587 17.1872C15.0585 17.3021 14.8795 17.3011 14.7803 17.1851Z" stroke="white" stroke-width="3.5"/>
</svg>
