<svg width="30" height="30" viewBox="0 0 30 30" fill="none" xmlns="http://www.w3.org/2000/svg">
<path d="M1.5 9.5C1.5 9.22386 1.72386 9 2 9H28C28.2761 9 28.5 9.22386 28.5 9.5V27.5C28.5 27.7761 28.2761 28 28 28H2C1.72386 28 1.5 27.7761 1.5 27.5V9.5Z" stroke="white" stroke-width="3"/>
<path d="M1.5 9.5C1.5 9.22386 1.72386 9 2 9H28C28.2761 9 28.5 9.22386 28.5 9.5V27.5C28.5 27.7761 28.2761 28 28 28H2C1.72386 28 1.5 27.7761 1.5 27.5V9.5Z" stroke="white" stroke-width="3"/>
<path d="M1.5 9.5C1.5 9.22386 1.72386 9 2 9H28C28.2761 9 28.5 9.22386 28.5 9.5V27.5C28.5 27.7761 28.2761 28 28 28H2C1.72386 28 1.5 27.7761 1.5 27.5V9.5Z" stroke="white" stroke-width="3"/>
<path d="M1.5 9.5C1.5 9.22386 1.72386 9 2 9H28C28.2761 9 28.5 9.22386 28.5 9.5V27.5C28.5 27.7761 28.2761 28 28 28H2C1.72386 28 1.5 27.7761 1.5 27.5V9.5Z" stroke="white" stroke-width="3"/>
<path d="M9.5 2C9.5 1.72386 9.72386 1.5 10 1.5H20C20.2761 1.5 20.5 1.72386 20.5 2V8C20.5 8.27614 20.2761 8.5 20 8.5H10C9.72386 8.5 9.5 8.27614 9.5 8V2Z" stroke="white" stroke-width="3"/>
<path d="M9.5 2C9.5 1.72386 9.72386 1.5 10 1.5H20C20.2761 1.5 20.5 1.72386 20.5 2V8C20.5 8.27614 20.2761 8.5 20 8.5H10C9.72386 8.5 9.5 8.27614 9.5 8V2Z" stroke="white" stroke-width="3"/>
<path d="M9.5 2C9.5 1.72386 9.72386 1.5 10 1.5H20C20.2761 1.5 20.5 1.72386 20.5 2V8C20.5 8.27614 20.2761 8.5 20 8.5H10C9.72386 8.5 9.5 8.27614 9.5 8V2Z" stroke="white" stroke-width="3"/>
<path d="M9.5 2C9.5 1.72386 9.72386 1.5 10 1.5H20C20.2761 1.5 20.5 1.72386 20.5 2V8C20.5 8.27614 20.2761 8.5 20 8.5H10C9.72386 8.5 9.5 8.27614 9.5 8V2Z" stroke="white" stroke-width="3"/>
<circle cx="15" cy="18" r="2" fill="white"/>
<line x1="3" y1="17.5" x2="27" y2="17.5" stroke="white"/>
</svg>
